<?xml version="1.0" standalone="no"?>
<!DOCTYPE svg PUBLIC "-//W3C//DTD SVG 1.1//EN" "http://www.w3.org/Graphics/SVG/1.1/DTD/svg11.dtd" >
<svg xmlns="http://www.w3.org/2000/svg" xmlns:xlink="http://www.w3.org/1999/xlink" version="1.1">
<metadata>
Created by FontForge 20161003 at Mon Feb  4 15:40:04 2019
 By www-data
Copyright \(c\) 2010 by Ryoichi Tsunekawa. All rights reserved.
</metadata>
<defs>
<font id="BebasNeue" horiz-adv-x="387" >
  <font-face 
    font-family="BebasNeue"
    font-weight="400"
    font-stretch="normal"
    units-per-em="1000"
    panose-1="0 0 5 0 0 0 0 0 0 0"
    ascent="750"
    descent="-250"
    x-height="700"
    cap-height="700"
    bbox="10 -96 664 848"
    underline-thickness="50"
    underline-position="-210"
    unicode-range="U+0020-0451"
  />
<missing-glyph horiz-adv-x="364" 
d="M33 0v666h265v-666h-265zM66 33h199v600h-199v-600z" />
    <glyph glyph-name=".notdef" horiz-adv-x="364" 
d="M33 0v666h265v-666h-265zM66 33h199v600h-199v-600z" />
    <glyph glyph-name=".null" horiz-adv-x="0" 
 />
    <glyph glyph-name="nonmarkingreturn" horiz-adv-x="333" 
 />
    <glyph glyph-name="space" unicode=" " horiz-adv-x="155" 
 />
    <glyph glyph-name="exclam" unicode="!" horiz-adv-x="158" 
d="M40 700h78v-329l-10 -216h-58l-10 216v329zM116 0h-75v97h75v-97z" />
    <glyph glyph-name="quotedbl" unicode="&#x22;" horiz-adv-x="265" 
d="M104 511h-54l-10 189h75zM214 511h-54l-10 189h75z" />
    <glyph glyph-name="numbersign" unicode="#" horiz-adv-x="412" 
d="M306 267h56l-6 -56h-56l-22 -211h-64l22 211h-91l-23 -211h-64l23 211h-58l6 56h57l22 205h-59l6 56h58l18 172h64l-18 -172h92l18 172h64l-18 -172h56l-6 -56h-56zM172 472l-22 -205h92l21 205h-91z" />
    <glyph glyph-name="dollar" unicode="$" 
d="M319 643q31 -44 31 -118v-19h-73v24q0 48 -20 74t-61 26q-40 0 -60 -26t-20 -74q0 -37 14 -62q14 -26 36 -46q17 -16 58 -47q39 -31 67 -57q25 -24 43 -59q17 -34 17 -84q0 -75 -31 -119q-31 -45 -94 -54v-53h-64v53q-62 9 -94 54q-32 46 -32 119v43h73v-48q0 -99 82 -99
t82 99q0 49 -27 82q-25 31 -80 72q-37 28 -67 56q-24 22 -43 61q-17 34 -17 84q0 73 31 118q30 43 92 54v56h64v-56q62 -9 93 -54z" />
    <glyph glyph-name="percent" unicode="%" horiz-adv-x="616" 
d="M210 674q26 -31 26 -83v-221q0 -54 -25 -83q-25 -30 -75 -30t-75 30q-25 29 -25 83v221q0 52 26 83q26 30 74 30t74 -30zM191 0h-47l276 700h47zM86 594v-228q0 -63 50 -63q26 0 38 17q12 16 12 46v228q0 30 -12 47t-38 17q-50 0 -50 -64zM555 412q25 -29 25 -82v-220
q0 -54 -25 -83q-25 -30 -75 -30t-75 30q-25 29 -25 83v220q0 53 25 82q25 30 75 30t75 -30zM442 380q-12 -16 -12 -47v-227q0 -30 12 -47t38 -17t38 17t12 47v227q0 31 -12 47t-38 16t-38 -16z" />
    <glyph glyph-name="ampersand" unicode="&#x26;" horiz-adv-x="408" 
d="M118 530v-35q0 -45 21 -69q21 -25 60 -26h79v78h77v-78h34v-70h-34v-241q0 -31 3 -51q4 -24 12 -38h-79q-6 14 -9 27q-2 10 -4 34q-15 -33 -43 -51q-27 -17 -67 -17q-64 0 -96 43q-31 41 -31 118v68q0 54 21 92t62 54q-41 15 -62 52q-21 38 -21 91v16q0 85 41 129t124 44
h113v-71h-111q-90 0 -90 -99zM118 224v-64q0 -49 20 -72q21 -24 61 -24q37 0 57 20t22 60v186h-73q-87 -3 -87 -106z" />
    <glyph glyph-name="quotesingle" unicode="'" horiz-adv-x="151" 
d="M102 511h-54l-10 189h75z" />
    <glyph glyph-name="parenleft" unicode="(" horiz-adv-x="241" 
d="M138 614q-16 -20 -16 -68v-392q0 -48 16 -68q17 -22 56 -22h23v-64h-28q-78 0 -111 36t-33 118v392q0 82 33 118t111 36h28v-64h-23q-39 0 -56 -22z" />
    <glyph glyph-name="parenright" unicode=")" horiz-adv-x="241" 
d="M164 664q32 -35 32 -118v-392q0 -83 -32 -118q-33 -36 -112 -36h-28v64h23q39 0 56 22q16 20 16 68v392q0 48 -16 68q-17 22 -56 22h-23v64h28q79 0 112 -36z" />
    <glyph glyph-name="asterisk" unicode="*" horiz-adv-x="395" 
d="M327 393l-51 -38l-79 139l-78 -139l-51 38l105 117l-155 32l19 61l146 -64l-18 158h64l-17 -158l146 63l19 -61l-156 -31z" />
    <glyph glyph-name="plus" unicode="+" horiz-adv-x="392" 
d="M224 181h-56v141h-138v56h138v139h56v-139h138v-56h-138v-141z" />
    <glyph glyph-name="comma" unicode="," horiz-adv-x="160" 
d="M45 0v97h75v-90l-39 -95h-32l25 88h-29z" />
    <glyph glyph-name="hyphen" unicode="-" horiz-adv-x="265" 
d="M228 385v-70h-191v70h191z" />
    <glyph glyph-name="period" unicode="." horiz-adv-x="155" 
d="M115 0h-75v97h75v-97z" />
    <glyph glyph-name="slash" unicode="/" horiz-adv-x="376" 
d="M84 0h-68l276 700h68z" />
    <glyph glyph-name="zero" unicode="0" horiz-adv-x="389" 
d="M74 660q41 47 120 47t120 -47t41 -129v-361q0 -81 -41 -130q-40 -47 -120 -47q-79 0 -119 47q-41 49 -41 130v361q0 83 40 129zM132 90q20 -26 62 -26t62 26q21 27 21 75v370q0 48 -21 75t-62 27t-62 -27t-21 -75v-370q0 -48 21 -75z" />
    <glyph glyph-name="one" unicode="1" horiz-adv-x="338" 
d="M86 543v64q52 1 78 26q26 24 42 67h54v-700h-77v573q-43 -27 -97 -30z" />
    <glyph glyph-name="two" unicode="2" 
d="M316 660q39 -46 39 -130q0 -53 -18 -97q-17 -42 -44 -78q-25 -35 -69 -81q-26 -29 -58 -68q-21 -26 -35 -58q-14 -33 -14 -66v-11h230v-71h-307v60q0 53 17 98q16 43 42 76q28 36 66 77q31 33 59 69q24 30 38 66q15 38 15 81q0 57 -19 83q-20 27 -63 27q-40 0 -61 -27
t-21 -76v-62h-73v57q0 83 39 131q38 47 118 47t119 -47z" />
    <glyph glyph-name="three" unicode="3" 
d="M312 660q39 -46 39 -129v-18q0 -53 -21 -91q-20 -36 -64 -53q44 -17 64 -53q21 -37 21 -92v-54q0 -84 -39 -130q-39 -47 -119 -47q-78 0 -117 47q-40 48 -40 130v48h73v-53q0 -48 21 -75q20 -26 61 -26q43 0 62 27q20 28 20 81v54q0 52 -22 77q-23 25 -66 27h-42v70h46
q39 1 62 26q22 23 22 70v32q0 54 -20 82q-19 27 -62 27q-40 0 -61 -27t-21 -75v-36h-73v32q0 81 40 129q39 47 117 47q80 0 119 -47z" />
    <glyph glyph-name="four" unicode="4" horiz-adv-x="400" 
d="M324 0h-76v141h-226v71l217 488h85v-488h56v-71h-56v-141zM248 212v342l-154 -342h154z" />
    <glyph glyph-name="five" unicode="5" 
d="M222 473q65 0 98 -44q32 -42 32 -122v-137q0 -84 -40 -130q-41 -47 -118 -47q-79 0 -118 47q-39 46 -39 130v47h73v-52q0 -49 20 -75t62 -26t62 26t20 75v136q0 49 -20 75t-62 26q-33 0 -54 -18q-20 -17 -25 -57v-16h-73l19 389h276v-70h-206l-11 -215q34 58 104 58z" />
    <glyph glyph-name="six" unicode="6" horiz-adv-x="389" 
d="M314 661q40 -48 40 -129v-13h-73v18q0 49 -21 74q-21 26 -62 26q-43 0 -64 -28q-21 -29 -21 -85v-157q30 75 113 75q66 0 98 -44t32 -122v-106q0 -81 -41 -130q-40 -47 -119 -47q-80 0 -120 47q-41 49 -41 130v357q0 87 40 133q41 47 121 47q79 0 118 -46zM134 344
q-21 -27 -21 -74v-105q0 -48 21 -75q20 -26 62 -26t62 26q21 27 21 75v105q0 47 -21 74t-62 27t-62 -27z" />
    <glyph glyph-name="seven" unicode="7" 
d="M35 630v70h317v-68l-180 -632h-78l179 630h-238z" />
    <glyph glyph-name="eight" unicode="8" horiz-adv-x="392" 
d="M318 662q43 -46 43 -128v-22q0 -54 -20 -92q-19 -37 -60 -52q80 -32 80 -148v-52q0 -80 -43 -128q-42 -47 -122 -47t-122 47q-43 48 -43 128v52q0 115 81 148q-81 32 -81 144v22q0 82 43 128q42 45 122 45t122 -45zM131 611q-23 -26 -23 -79v-34q0 -98 88 -98t88 98v34
q0 53 -23 79t-65 26t-65 -26zM108 229v-59q0 -54 22 -80t66 -26q87 0 88 106v59q0 101 -88 101t-88 -101z" />
    <glyph glyph-name="nine" unicode="9" horiz-adv-x="389" 
d="M313 660q41 -47 41 -129v-357q0 -87 -40 -134t-122 -47q-77 0 -118 47q-40 46 -40 129v13h73v-18q0 -48 21 -74t62 -26q44 0 65 28t21 84v157q-29 -74 -113 -74q-67 0 -98 43q-32 44 -32 122v107q0 82 41 129t119 47q79 0 120 -47zM131 610q-21 -26 -21 -75v-105
q0 -47 21 -74t62 -27q42 0 63 27q20 26 20 74v105q0 101 -83 101q-41 0 -62 -26z" />
    <glyph glyph-name="colon" unicode=":" horiz-adv-x="155" 
d="M115 381h-75v97h75v-97zM115 0h-75v97h75v-97z" />
    <glyph glyph-name="semicolon" unicode=";" horiz-adv-x="160" 
d="M120 381h-75v97h75v-97zM45 0v97h75v-90l-39 -95h-32l25 88h-29z" />
    <glyph glyph-name="less" unicode="&#x3c;" horiz-adv-x="383" 
d="M33 322v56l310 127v-57l-237 -98l237 -98v-57z" />
    <glyph glyph-name="equal" unicode="=" horiz-adv-x="350" 
d="M313 400h-276v56h276v-56zM313 258h-276v56h276v-56z" />
    <glyph glyph-name="greater" unicode="&#x3e;" horiz-adv-x="383" 
d="M277 350l-237 98v57l310 -127v-56l-310 -127v57z" />
    <glyph glyph-name="question" unicode="?" horiz-adv-x="361" 
d="M300 660q38 -45 38 -130q0 -58 -20 -100q-22 -45 -56 -89q-37 -51 -48 -74q-15 -31 -15 -73q0 -16 5 -38h-70q-5 22 -5 40q0 51 16 84q17 36 48 80q35 47 50 82q17 39 17 92q0 103 -80 103q-40 0 -60 -27q-20 -28 -20 -76v-62h-73v57q0 83 39 131q38 47 116 47
q79 0 118 -47zM205 0h-74v97h74v-97z" />
    <glyph glyph-name="at" unicode="@" horiz-adv-x="689" 
d="M599 658q65 -79 65 -211q0 -94 -26 -166q-26 -71 -68 -109q-41 -37 -89 -37q-37 0 -57 17q-20 18 -22 51q-32 -68 -100 -68q-49 0 -73 33t-24 88q0 2 2 32l11 100q7 68 38 108q29 38 82 38q35 0 58 -17t32 -49l7 62h68l-30 -287q-1 -18 5 -31q6 -12 24 -12q52 0 77 75
q25 74 25 165q0 111 -52 172q-53 62 -163 62q-144 0 -219 -107q-74 -105 -74 -283q0 -134 62 -205q63 -72 191 -72q55 0 105 14q44 12 92 49l-6 -69q-44 -31 -90 -42q-48 -12 -105 -12q-160 0 -238 90t-78 251q0 123 40 224q41 103 121 162q82 61 201 61q144 0 208 -77z
M308 444q-19 -23 -23 -63l-9 -90q-1 -5 -1 -20q0 -70 60 -70q33 0 51 24q20 26 24 65l10 96q1 3 1 14q0 31 -16 48q-17 18 -45 18q-34 0 -52 -22z" />
    <glyph glyph-name="A" unicode="A" horiz-adv-x="422" 
d="M92 0h-72l134 700h113l134 -700h-78l-27 141h-177zM285 208l-79 404l-77 -404h156z" />
    <glyph glyph-name="B" unicode="B" horiz-adv-x="392" 
d="M313 662q36 -38 36 -117v-33q0 -60 -19 -92q-20 -34 -63 -47q94 -25 94 -150v-59q0 -80 -39 -122t-121 -42h-161v700h157q80 0 116 -38zM250 423q22 19 22 73v41q0 47 -18 69q-18 23 -59 23h-77v-226h60q49 0 72 20zM264 94q20 23 20 72v62q0 55 -23 80q-23 24 -75 24
h-68v-261h83q43 0 63 23z" />
    <glyph glyph-name="C" unicode="C" horiz-adv-x="380" 
d="M310 660q39 -46 39 -129v-63h-74v67q0 101 -82 101q-41 0 -61 -26q-21 -27 -21 -75v-370q0 -48 21 -75q20 -26 61 -26q82 0 82 101v91h74v-87q0 -83 -39 -129q-39 -47 -119 -47q-78 0 -117 47q-40 48 -40 129v362q0 81 40 129q39 47 117 47q80 0 119 -47z" />
    <glyph glyph-name="D" unicode="D" horiz-adv-x="396" 
d="M324 654q39 -45 39 -128v-353q0 -82 -39 -127q-40 -46 -120 -46h-164v700h164q80 0 120 -46zM286 170v360q0 99 -84 99h-84v-558h85q83 0 83 99z" />
    <glyph glyph-name="E" unicode="E" horiz-adv-x="360" 
d="M289 320h-171v-249h210v-71h-288v700h288v-71h-210v-239h171v-70z" />
    <glyph glyph-name="F" unicode="F" horiz-adv-x="340" 
d="M279 303h-161v-303h-78v700h278v-71h-200v-255h161v-71z" />
    <glyph glyph-name="G" unicode="G" horiz-adv-x="383" 
d="M310 660q39 -46 39 -129v-60h-74v64q0 101 -82 101q-41 0 -61 -26q-21 -27 -21 -75v-370q0 -48 21 -75q20 -26 61 -26q82 0 82 101v140h-72v70h146v-206q0 -83 -39 -129q-39 -47 -119 -47q-78 0 -117 47q-40 48 -40 129v362q0 81 40 129q39 47 117 47q80 0 119 -47z" />
    <glyph glyph-name="H" unicode="H" horiz-adv-x="408" 
d="M118 0h-78v700h78v-315h172v315h78v-700h-78v315h-172v-315z" />
    <glyph glyph-name="I" unicode="I" horiz-adv-x="158" 
d="M118 0h-78v700h78v-700z" />
    <glyph glyph-name="J" unicode="J" horiz-adv-x="255" 
d="M59 70q40 1 61 24q21 22 21 74v532h77v-527q0 -169 -149 -174h-25q-18 0 -24 1v71q9 -1 39 -1z" />
    <glyph glyph-name="K" unicode="K" horiz-adv-x="409" 
d="M118 235v-235h-78v700h78v-338l186 338h79l-177 -319l183 -381h-80l-150 304z" />
    <glyph glyph-name="L" unicode="L" horiz-adv-x="337" 
d="M40 700h78v-629h200v-71h-278v700z" />
    <glyph glyph-name="M" unicode="M" horiz-adv-x="523" 
d="M223 1l-116 557v-558h-68v700h109l115 -559l111 559h109v-700h-74v563l-111 -562h-75z" />
    <glyph glyph-name="N" unicode="N" horiz-adv-x="409" 
d="M39 0v700h99l162 -506v506h69v-700h-81l-179 566v-566h-70z" />
    <glyph glyph-name="O" unicode="O" horiz-adv-x="389" 
d="M74 660q41 47 120 47t120 -47t41 -129v-362q0 -82 -41 -129t-120 -47q-78 0 -119 47t-41 129v362q0 83 40 129zM132 90q21 -26 62 -26q83 0 83 101v370q0 48 -21 75q-20 26 -62 26t-62 -26q-21 -27 -21 -75v-370q0 -49 21 -75z" />
    <glyph glyph-name="P" unicode="P" horiz-adv-x="374" 
d="M312 656q38 -44 38 -127v-84q0 -169 -163 -169h-69v-276h-78v700h153q81 0 119 -44zM252 368q21 22 21 72v93q0 50 -19 73t-61 23h-75v-283h69q44 0 65 22z" />
    <glyph glyph-name="Q" unicode="Q" horiz-adv-x="402" 
d="M314 660q41 -47 41 -129v-362q0 -67 -27 -109q6 -13 16 -17q12 -5 27 -5h10v-69h-13q-64 0 -89 45q-36 -21 -85 -21q-78 0 -119 47t-41 129v362q0 83 40 129q41 47 120 47t120 -47zM132 610q-21 -27 -21 -75v-370q0 -49 21 -75t62 -26q83 0 83 101v370q0 48 -21 75
q-20 26 -62 26t-62 -26z" />
    <glyph glyph-name="R" unicode="R" horiz-adv-x="394" 
d="M314 660q38 -41 38 -120v-57q0 -58 -21 -94q-21 -37 -66 -50q45 -13 67 -51q21 -36 21 -95v-109q0 -28 3 -48q3 -22 11 -36h-79q-7 15 -10 34q-3 18 -3 51v110q0 57 -25 81q-24 23 -77 23h-55v-299h-78v700h156q81 0 118 -40zM250 391q25 22 25 75v67q0 49 -19 72
q-20 24 -62 24h-76v-259h58q50 0 74 21z" />
    <glyph glyph-name="S" unicode="S" horiz-adv-x="372" 
d="M304 660q39 -46 39 -128v-19h-74v23q0 100 -80 100t-80 -99q0 -51 27 -85q26 -33 81 -76q43 -36 67 -61q25 -27 42 -62q18 -37 18 -85q0 -82 -40 -128q-41 -47 -118 -47q-79 0 -118 47q-39 46 -39 128v40h73v-44q0 -50 20 -74q21 -26 62 -26t62 26q20 24 20 74t-26 83
q-25 32 -81 77q-47 40 -67 60q-24 24 -42 62t-18 86q0 82 39 129q39 46 116 46q78 0 117 -47z" />
    <glyph glyph-name="T" unicode="T" horiz-adv-x="363" 
d="M142 629h-129v71h336v-71h-129v-629h-78v629z" />
    <glyph glyph-name="U" unicode="U" 
d="M196 64q41 0 61 26t20 75v535h73v-531q0 -83 -39 -130t-118 -47q-78 0 -117 48t-39 129v531h77v-535q0 -101 82 -101z" />
    <glyph glyph-name="V" unicode="V" horiz-adv-x="418" 
d="M213 91l113 609h72l-131 -700h-115l-132 700h79z" />
    <glyph glyph-name="W" unicode="W" horiz-adv-x="583" 
d="M119 0l-96 700h76l82 -596l78 595h77l77 -596l79 597h68l-95 -700h-103l-67 475l-69 -475h-107z" />
    <glyph glyph-name="X" unicode="X" horiz-adv-x="435" 
d="M97 0h-74l141 361l-132 339h81l108 -280l109 280h73l-131 -339l140 -361h-82l-116 302z" />
    <glyph glyph-name="Y" unicode="Y" horiz-adv-x="406" 
d="M16 700h81l109 -344l110 344h74l-149 -449v-251h-77v251z" />
    <glyph glyph-name="Z" unicode="Z" horiz-adv-x="379" 
d="M29 0v70l240 559h-229v71h309v-70l-241 -559h239v-71h-318z" />
    <glyph glyph-name="bracketleft" unicode="[" horiz-adv-x="242" 
d="M214 0h-169v700h169v-64h-92v-572h92v-64z" />
    <glyph glyph-name="backslash" unicode="\" horiz-adv-x="376" 
d="M360 0h-68l-276 700h68z" />
    <glyph glyph-name="bracketright" unicode="]" horiz-adv-x="242" 
d="M119 636h-91v64h169v-700h-169v64h91v572z" />
    <glyph glyph-name="asciicircum" unicode="^" horiz-adv-x="403" 
d="M27 390l146 310h57l146 -310h-63l-112 239l-111 -239h-63z" />
    <glyph glyph-name="underscore" unicode="_" horiz-adv-x="507" 
d="M490 -67h-477v57h477v-57z" />
    <glyph glyph-name="grave" unicode="`" horiz-adv-x="223" 
d="M193 745h-57l-93 103h81z" />
    <glyph glyph-name="a" unicode="a" horiz-adv-x="422" 
d="M92 0h-72l134 700h113l134 -700h-78l-27 141h-177zM285 208l-79 404l-77 -404h156z" />
    <glyph glyph-name="b" unicode="b" horiz-adv-x="392" 
d="M313 662q36 -38 36 -117v-33q0 -60 -19 -92q-20 -34 -63 -47q94 -25 94 -150v-59q0 -80 -39 -122t-121 -42h-161v700h157q80 0 116 -38zM250 423q22 19 22 73v41q0 47 -18 69q-18 23 -59 23h-77v-226h60q49 0 72 20zM264 94q20 23 20 72v62q0 55 -23 80q-23 24 -75 24
h-68v-261h83q43 0 63 23z" />
    <glyph glyph-name="c" unicode="c" horiz-adv-x="380" 
d="M310 660q39 -46 39 -129v-63h-74v67q0 101 -82 101q-41 0 -61 -26q-21 -27 -21 -75v-370q0 -48 21 -75q20 -26 61 -26q82 0 82 101v91h74v-87q0 -83 -39 -129q-39 -47 -119 -47q-78 0 -117 47q-40 48 -40 129v362q0 81 40 129q39 47 117 47q80 0 119 -47z" />
    <glyph glyph-name="d" unicode="d" horiz-adv-x="396" 
d="M324 654q39 -45 39 -128v-353q0 -82 -39 -127q-40 -46 -120 -46h-164v700h164q80 0 120 -46zM286 170v360q0 99 -84 99h-84v-558h85q83 0 83 99z" />
    <glyph glyph-name="e" unicode="e" horiz-adv-x="360" 
d="M289 320h-171v-249h210v-71h-288v700h288v-71h-210v-239h171v-70z" />
    <glyph glyph-name="f" unicode="f" horiz-adv-x="340" 
d="M279 303h-161v-303h-78v700h278v-71h-200v-255h161v-71z" />
    <glyph glyph-name="g" unicode="g" horiz-adv-x="383" 
d="M310 660q39 -46 39 -129v-60h-74v64q0 101 -82 101q-41 0 -61 -26q-21 -27 -21 -75v-370q0 -48 21 -75q20 -26 61 -26q82 0 82 101v140h-72v70h146v-206q0 -83 -39 -129q-39 -47 -119 -47q-78 0 -117 47q-40 48 -40 129v362q0 81 40 129q39 47 117 47q80 0 119 -47z" />
    <glyph glyph-name="h" unicode="h" horiz-adv-x="408" 
d="M118 0h-78v700h78v-315h172v315h78v-700h-78v315h-172v-315z" />
    <glyph glyph-name="i" unicode="i" horiz-adv-x="158" 
d="M118 0h-78v700h78v-700z" />
    <glyph glyph-name="j" unicode="j" horiz-adv-x="255" 
d="M59 70q40 1 61 24q21 22 21 74v532h77v-527q0 -169 -149 -174h-25q-18 0 -24 1v71q9 -1 39 -1z" />
    <glyph glyph-name="k" unicode="k" horiz-adv-x="409" 
d="M118 235v-235h-78v700h78v-338l186 338h79l-177 -319l183 -381h-80l-150 304z" />
    <glyph glyph-name="l" unicode="l" horiz-adv-x="337" 
d="M40 700h78v-629h200v-71h-278v700z" />
    <glyph glyph-name="m" unicode="m" horiz-adv-x="523" 
d="M223 1l-116 557v-558h-68v700h109l115 -559l111 559h109v-700h-74v563l-111 -562h-75z" />
    <glyph glyph-name="n" unicode="n" horiz-adv-x="409" 
d="M39 0v700h99l162 -506v506h69v-700h-81l-179 566v-566h-70z" />
    <glyph glyph-name="o" unicode="o" horiz-adv-x="389" 
d="M74 660q41 47 120 47t120 -47t41 -129v-362q0 -82 -41 -129t-120 -47q-78 0 -119 47t-41 129v362q0 83 40 129zM132 90q21 -26 62 -26q83 0 83 101v370q0 48 -21 75q-20 26 -62 26t-62 -26q-21 -27 -21 -75v-370q0 -49 21 -75z" />
    <glyph glyph-name="p" unicode="p" horiz-adv-x="371" 
d="M312 656q38 -44 38 -127v-84q0 -169 -163 -169h-69v-276h-78v700h153q81 0 119 -44zM252 368q21 22 21 72v93q0 50 -19 73t-61 23h-75v-283h69q44 0 65 22z" />
    <glyph glyph-name="q" unicode="q" horiz-adv-x="392" 
d="M314 660q41 -47 41 -129v-362q0 -67 -27 -109q6 -13 16 -17q12 -5 27 -5h10v-69h-13q-64 0 -89 45q-36 -21 -85 -21q-78 0 -119 47t-41 129v362q0 83 40 129q41 47 120 47t120 -47zM132 610q-21 -27 -21 -75v-370q0 -49 21 -75t62 -26q83 0 83 101v370q0 48 -21 75
q-20 26 -62 26t-62 -26z" />
    <glyph glyph-name="r" unicode="r" horiz-adv-x="394" 
d="M314 660q38 -41 38 -120v-57q0 -58 -21 -94q-21 -37 -66 -50q45 -13 67 -51q21 -36 21 -95v-109q0 -28 3 -48q3 -22 11 -36h-79q-7 15 -10 34q-3 18 -3 51v110q0 57 -25 81q-24 23 -77 23h-55v-299h-78v700h156q81 0 118 -40zM250 391q25 22 25 75v67q0 49 -19 72
q-20 24 -62 24h-76v-259h58q50 0 74 21z" />
    <glyph glyph-name="s" unicode="s" horiz-adv-x="372" 
d="M304 660q39 -46 39 -128v-19h-74v23q0 100 -80 100t-80 -99q0 -51 27 -85q26 -33 81 -76q43 -36 67 -61q25 -27 42 -62q18 -37 18 -85q0 -82 -40 -128q-41 -47 -118 -47q-79 0 -118 47q-39 46 -39 128v40h73v-44q0 -50 20 -74q21 -26 62 -26t62 26q20 24 20 74t-26 83
q-25 32 -81 77q-47 40 -67 60q-24 24 -42 62t-18 86q0 82 39 129q39 46 116 46q78 0 117 -47z" />
    <glyph glyph-name="t" unicode="t" horiz-adv-x="360" 
d="M141 629h-129v71h335v-71h-129v-629h-77v629z" />
    <glyph glyph-name="u" unicode="u" 
d="M196 64q41 0 61 26t20 75v535h73v-531q0 -83 -39 -130t-118 -47q-78 0 -117 48t-39 129v531h77v-535q0 -101 82 -101z" />
    <glyph glyph-name="v" unicode="v" horiz-adv-x="418" 
d="M213 91l113 609h72l-131 -700h-115l-132 700h79z" />
    <glyph glyph-name="w" unicode="w" horiz-adv-x="583" 
d="M119 0l-96 700h76l82 -596l78 595h77l77 -596l79 597h68l-95 -700h-103l-67 475l-69 -475h-107z" />
    <glyph glyph-name="x" unicode="x" horiz-adv-x="435" 
d="M97 0h-74l141 361l-132 339h81l108 -280l109 280h73l-131 -339l140 -361h-82l-116 302z" />
    <glyph glyph-name="y" unicode="y" horiz-adv-x="406" 
d="M16 700h81l109 -344l110 344h74l-149 -449v-251h-77v251z" />
    <glyph glyph-name="z" unicode="z" horiz-adv-x="379" 
d="M29 0v70l240 559h-229v71h309v-70l-241 -559h239v-71h-318z" />
    <glyph glyph-name="braceleft" unicode="{" horiz-adv-x="257" 
d="M172 618q-14 -20 -15 -59l-6 -113q-2 -38 -15 -62q-13 -23 -50 -34q37 -11 50 -34q13 -24 15 -62l6 -113q1 -39 15 -59q12 -18 42 -18h19v-64h-46q-92 0 -100 107l-7 136q-1 38 -14 55q-12 16 -46 19v66q34 3 46 19q13 17 14 55l7 136q8 107 100 107h46v-64h-19
q-30 0 -42 -18z" />
    <glyph glyph-name="bar" unicode="|" horiz-adv-x="373" 
d="M222 -44h-64v788h64v-788z" />
    <glyph glyph-name="braceright" unicode="}" horiz-adv-x="257" 
d="M141 672q25 -26 28 -79l8 -136q1 -38 13 -55q11 -16 46 -19v-66q-35 -3 -46 -19q-12 -17 -13 -55l-8 -136q-3 -53 -28 -79q-26 -28 -71 -28h-46v64h19q31 0 43 18q13 19 14 59l6 113q2 38 15 62t50 34q-37 10 -50 34t-15 62l-6 113q-1 40 -14 59q-12 18 -43 18h-19v64h46
q45 0 71 -28z" />
    <glyph glyph-name="asciitilde" unicode="~" horiz-adv-x="396" 
d="M164 402q24 -12 44 -25q29 -17 38 -21q16 -7 28 -7q18 0 32 12q13 12 34 43l38 -38q-27 -42 -51 -60q-23 -17 -53 -17q-20 0 -38 9q-26 13 -43 24q-35 21 -37 22q-14 7 -31 7t-33 -13t-36 -43l-38 36q28 43 54 61t54 18q22 0 38 -8z" />
    <glyph glyph-name="uni0401" unicode="&#x401;" horiz-adv-x="360" 
d="M155 741h-68v90h68v-90zM280 741h-69v90h69v-90zM289 320h-171v-249h210v-71h-288v700h288v-71h-210v-239h171v-70z" />
    <glyph glyph-name="uni0410" unicode="&#x410;" horiz-adv-x="422" 
d="M92 0h-72l134 700h113l134 -700h-78l-27 141h-177zM285 208l-79 404l-77 -404h156z" />
    <glyph glyph-name="uni0411" unicode="&#x411;" horiz-adv-x="401" 
d="M324 370q41 -40 41 -123v-77q0 -170 -161 -170h-163v700h295v-71h-218v-218h82q81 0 124 -41zM267 94q20 23 20 71v87q0 50 -21 69q-22 20 -66 20h-82v-270h86q43 0 63 23z" />
    <glyph glyph-name="uni0412" unicode="&#x412;" horiz-adv-x="392" 
d="M313 662q36 -38 36 -117v-33q0 -60 -19 -92q-20 -34 -63 -47q94 -25 94 -150v-59q0 -80 -39 -122t-121 -42h-161v700h157q80 0 116 -38zM250 423q22 19 22 73v41q0 47 -18 69q-18 23 -59 23h-77v-226h60q49 0 72 20zM264 94q20 23 20 72v62q0 55 -23 80q-23 24 -75 24
h-68v-261h83q43 0 63 23z" />
    <glyph glyph-name="uni0413" unicode="&#x413;" horiz-adv-x="356" 
d="M118 0h-77v700h279v-71h-202v-629z" />
    <glyph glyph-name="uni0414" unicode="&#x414;" horiz-adv-x="489" 
d="M385 0h-286v-96h-75v165h45q17 21 23 43q7 27 8 59l27 529h281v-631h53v-165h-76v96zM167 110q-8 -26 -23 -41h185v560h-130l-23 -457q-1 -38 -9 -62z" />
    <glyph glyph-name="uni0415" unicode="&#x415;" horiz-adv-x="360" 
d="M289 320h-171v-249h210v-71h-288v700h288v-71h-210v-239h171v-70z" />
    <glyph glyph-name="uni0416" unicode="&#x416;" horiz-adv-x="613" 
d="M345 264v-264h-77v264l-36 67l-134 -331h-80l160 403l-156 297h78l168 -322v322h77v-322l169 322h78l-155 -295l159 -405h-80l-134 330z" />
    <glyph glyph-name="uni0417" unicode="&#x417;" 
d="M312 660q39 -46 39 -129v-18q0 -55 -22 -92q-22 -36 -64 -53q44 -15 65 -52t21 -92v-55q0 -83 -39 -129q-39 -47 -119 -47q-78 0 -117 47q-40 48 -40 129v68h73v-72q0 -48 21 -75q20 -26 61 -26q43 0 62 27q20 28 20 80v55q0 50 -23 78q-22 26 -67 26h-33v70h37
q39 0 63 26q23 24 23 70v32q0 54 -20 82q-19 26 -62 26q-41 0 -61 -26q-21 -27 -21 -75v-47h-72v44q0 82 39 129q39 46 117 46q80 0 119 -47z" />
    <glyph glyph-name="uni0418" unicode="&#x418;" horiz-adv-x="409" 
d="M121 0h-81v700h69v-522l72 221l102 301h87v-700h-70v557l-75 -232z" />
    <glyph glyph-name="uni0419" unicode="&#x419;" horiz-adv-x="410" 
d="M288 772q-29 -26 -79 -26q-49 0 -78 26t-30 72h49q4 -51 59 -51t60 51h48q0 -46 -29 -72zM121 0h-81v700h69v-522l66 205l108 317h87v-700h-70v557l-73 -226z" />
    <glyph glyph-name="uni041A" unicode="&#x41a;" horiz-adv-x="409" 
d="M118 235v-235h-78v700h78v-338l186 338h79l-177 -319l183 -381h-80l-150 304z" />
    <glyph glyph-name="uni041B" unicode="&#x41b;" horiz-adv-x="444" 
d="M173 174q-3 -91 -34 -132q-31 -42 -107 -43h-13v71q46 0 61 22q16 23 17 78l19 530h285v-700h-78v629h-134z" />
    <glyph glyph-name="uni041C" unicode="&#x41c;" horiz-adv-x="523" 
d="M223 1l-116 557v-558h-68v700h109l115 -559l111 559h109v-700h-74v563l-111 -562h-75z" />
    <glyph glyph-name="uni041D" unicode="&#x41d;" horiz-adv-x="408" 
d="M118 0h-78v700h78v-315h172v315h78v-700h-78v315h-172v-315z" />
    <glyph glyph-name="uni041E" unicode="&#x41e;" horiz-adv-x="389" 
d="M74 660q41 47 120 47t120 -47t41 -129v-362q0 -82 -41 -129t-120 -47q-78 0 -119 47t-41 129v362q0 83 40 129zM132 90q21 -26 62 -26q83 0 83 101v370q0 48 -21 75q-20 26 -62 26t-62 -26q-21 -27 -21 -75v-370q0 -49 21 -75z" />
    <glyph glyph-name="uni041F" unicode="&#x41f;" horiz-adv-x="408" 
d="M118 0h-78v700h328v-700h-78v629h-172v-629z" />
    <glyph glyph-name="uni0420" unicode="&#x420;" horiz-adv-x="371" 
d="M312 656q38 -44 38 -127v-84q0 -169 -163 -169h-69v-276h-78v700h153q81 0 119 -44zM252 368q21 22 21 72v93q0 50 -19 73t-61 23h-75v-283h69q44 0 65 22z" />
    <glyph glyph-name="uni0421" unicode="&#x421;" horiz-adv-x="380" 
d="M310 660q39 -46 39 -129v-63h-74v67q0 101 -82 101q-41 0 -61 -26q-21 -27 -21 -75v-370q0 -48 21 -75q20 -26 61 -26q82 0 82 101v91h74v-87q0 -83 -39 -129q-39 -47 -119 -47q-78 0 -117 47q-40 48 -40 129v362q0 81 40 129q39 47 117 47q80 0 119 -47z" />
    <glyph glyph-name="uni0422" unicode="&#x422;" horiz-adv-x="372" 
d="M147 629h-129v71h336v-71h-129v-629h-78v629z" />
    <glyph glyph-name="uni0423" unicode="&#x423;" horiz-adv-x="417" 
d="M218 63q-19 -34 -56 -51q-35 -16 -99 -13v70q45 -2 67 13t33 56l16 46l-161 516h78l71 -243l48 -176l41 176l63 243h81l-150 -546q-14 -59 -32 -91z" />
    <glyph glyph-name="uni0424" unicode="&#x424;" horiz-adv-x="569" 
d="M533 443v-191q0 -175 -162 -175h-49v-77h-77v77h-49q-162 0 -162 175v191q0 175 162 175h49v82h77v-82h49q162 0 162 -175zM132 524q-21 -26 -21 -76v-201q0 -51 21 -77q21 -25 64 -25h49v404h-49q-43 0 -64 -25zM457 247v201q0 50 -21 76q-21 25 -65 25h-49v-404h49
q86 0 86 102z" />
    <glyph glyph-name="uni0425" unicode="&#x425;" horiz-adv-x="435" 
d="M97 0h-74l141 361l-132 339h81l108 -280l109 280h73l-131 -339l140 -361h-82l-116 302z" />
    <glyph glyph-name="uni0426" unicode="&#x426;" horiz-adv-x="455" 
d="M352 0h-305v700h77v-629h172v629h79v-631h53v-163h-76v94z" />
    <glyph glyph-name="uni0427" unicode="&#x427;" horiz-adv-x="401" 
d="M236 270q-30 -15 -62 -15q-68 0 -104 46q-35 45 -35 120v279h78v-273q0 -44 23 -73q22 -28 63 -28q36 0 57 21t27 61v292h77v-700h-77v310q-18 -26 -47 -40z" />
    <glyph glyph-name="uni0428" unicode="&#x428;" horiz-adv-x="581" 
d="M118 71h134v629h78v-629h134v629h77v-700h-501v700h78v-629z" />
    <glyph glyph-name="uni0429" unicode="&#x429;" horiz-adv-x="622" 
d="M520 0h-480v700h78v-629h134v629h77v-629h135v629h77v-631h54v-163h-75v94z" />
    <glyph glyph-name="uni042A" unicode="&#x42a;" horiz-adv-x="438" 
d="M408 255v-84q0 -83 -38 -127t-119 -44h-153v630h-88v70h165v-276h70q163 0 163 -169zM312 94q18 24 18 73v93q0 51 -20 72q-21 22 -65 22h-70v-283h76q44 0 61 23z" />
    <glyph glyph-name="uni042B" unicode="&#x42b;" horiz-adv-x="532" 
d="M350 255v-84q0 -83 -38 -127t-119 -44h-153v700h78v-276h69q163 0 163 -169zM492 0h-77v700h77v-700zM254 94q19 23 19 73v93q0 50 -21 72t-65 22h-69v-283h75q42 0 61 23z" />
    <glyph glyph-name="uni042C" unicode="&#x42c;" horiz-adv-x="381" 
d="M350 255v-84q0 -83 -38 -127t-119 -44h-153v700h78v-276h69q163 0 163 -169zM254 94q19 23 19 73v93q0 50 -21 72t-65 22h-69v-283h75q42 0 61 23z" />
    <glyph glyph-name="uni042D" unicode="&#x42d;" horiz-adv-x="380" 
d="M306 660q39 -46 39 -129v-362q0 -83 -39 -129q-39 -47 -118 -47t-118 47q-39 46 -39 129v76h73v-80q0 -49 20 -75t62 -26t62 26t20 75v162h-122v70h122v138q0 49 -20 75t-62 26t-62 -26t-20 -75v-56h-72v52q0 83 39 129q39 47 117 47q79 0 118 -47z" />
    <glyph glyph-name="uni042E" unicode="&#x42e;" horiz-adv-x="575" 
d="M500 660q40 -46 40 -129v-362q0 -82 -41 -129t-119 -47q-79 0 -120 47t-41 129v146h-101v-315h-78v700h78v-315h101v146q0 82 41 129t120 47t120 -47zM297 535v-370q0 -48 21 -75q20 -26 62 -26t62 26q21 27 21 75v370q0 49 -21 75t-62 26q-83 0 -83 -101z" />
    <glyph glyph-name="uni042F" unicode="&#x42f;" horiz-adv-x="394" 
d="M144 276q-25 -24 -25 -81v-110q0 -33 -3 -51q-3 -19 -10 -34h-79q14 30 14 84v109q0 59 21 95q22 38 66 51q-86 29 -86 144v57q0 79 38 120q37 40 118 40h156v-700h-78v299h-55q-53 0 -77 -23zM138 605q-19 -23 -19 -72v-67q0 -53 25 -75q24 -21 73 -21h59v259h-76
q-42 0 -62 -24z" />
    <glyph glyph-name="uni0430" unicode="&#x430;" horiz-adv-x="422" 
d="M92 0h-72l134 700h113l134 -700h-78l-27 141h-177zM285 208l-79 404l-77 -404h156z" />
    <glyph glyph-name="uni0431" unicode="&#x431;" horiz-adv-x="401" 
d="M324 370q41 -40 41 -123v-77q0 -170 -161 -170h-163v700h295v-71h-218v-218h82q81 0 124 -41zM267 94q20 23 20 71v87q0 50 -21 69q-22 20 -66 20h-82v-270h86q43 0 63 23z" />
    <glyph glyph-name="uni0432" unicode="&#x432;" horiz-adv-x="392" 
d="M313 662q36 -38 36 -117v-33q0 -60 -19 -92q-20 -34 -63 -47q94 -25 94 -150v-59q0 -80 -39 -122t-121 -42h-161v700h157q80 0 116 -38zM250 423q22 19 22 73v41q0 47 -18 69q-18 23 -59 23h-77v-226h60q49 0 72 20zM264 94q20 23 20 72v62q0 55 -23 80q-23 24 -75 24
h-68v-261h83q43 0 63 23z" />
    <glyph glyph-name="uni0433" unicode="&#x433;" horiz-adv-x="356" 
d="M118 0h-77v700h279v-71h-202v-629z" />
    <glyph glyph-name="uni0434" unicode="&#x434;" horiz-adv-x="489" 
d="M385 0h-286v-96h-75v165h45q17 21 23 43q7 27 8 59l27 529h281v-631h53v-165h-76v96zM167 110q-8 -26 -23 -41h185v560h-130l-23 -457q-1 -38 -9 -62z" />
    <glyph glyph-name="uni0435" unicode="&#x435;" horiz-adv-x="360" 
d="M289 320h-171v-249h210v-71h-288v700h288v-71h-210v-239h171v-70z" />
    <glyph glyph-name="uni0436" unicode="&#x436;" horiz-adv-x="613" 
d="M345 264v-264h-77v264l-36 67l-134 -331h-80l160 403l-156 297h78l168 -322v322h77v-322l169 322h78l-155 -295l159 -405h-80l-134 330z" />
    <glyph glyph-name="uni0437" unicode="&#x437;" 
d="M312 660q39 -46 39 -129v-18q0 -55 -22 -92q-22 -36 -64 -53q44 -15 65 -52t21 -92v-55q0 -83 -39 -129q-39 -47 -119 -47q-78 0 -117 47q-40 48 -40 129v68h73v-72q0 -48 21 -75q20 -26 61 -26q43 0 62 27q20 28 20 80v55q0 50 -23 78q-22 26 -67 26h-33v70h37
q39 0 63 26q23 24 23 70v32q0 54 -20 82q-19 26 -62 26q-41 0 -61 -26q-21 -27 -21 -75v-47h-72v44q0 82 39 129q39 46 117 46q80 0 119 -47z" />
    <glyph glyph-name="uni0438" unicode="&#x438;" horiz-adv-x="409" 
d="M121 0h-81v700h69v-522l62 193l112 329h87v-700h-70v557l-76 -234z" />
    <glyph glyph-name="uni0439" unicode="&#x439;" horiz-adv-x="410" 
d="M288 771q-29 -26 -79 -26q-49 0 -78 26q-29 25 -30 72h49q1 -27 17 -39q15 -12 42 -12q55 0 60 51h48q0 -46 -29 -72zM121 0h-81v700h69v-522l65 202l109 320h87v-700h-70v557l-70 -220z" />
    <glyph glyph-name="uni043A" unicode="&#x43a;" horiz-adv-x="409" 
d="M118 235v-235h-78v700h78v-338l186 338h79l-177 -319l183 -381h-80l-150 304z" />
    <glyph glyph-name="uni043B" unicode="&#x43b;" horiz-adv-x="444" 
d="M173 174q-3 -91 -34 -132q-31 -42 -107 -43h-13v71q46 0 61 22q16 23 17 78l19 530h285v-700h-78v629h-134z" />
    <glyph glyph-name="uni043C" unicode="&#x43c;" horiz-adv-x="523" 
d="M223 1l-116 557v-558h-68v700h109l115 -559l111 559h109v-700h-74v563l-111 -562h-75z" />
    <glyph glyph-name="uni043D" unicode="&#x43d;" horiz-adv-x="408" 
d="M118 0h-78v700h78v-315h172v315h78v-700h-78v315h-172v-315z" />
    <glyph glyph-name="uni043E" unicode="&#x43e;" horiz-adv-x="389" 
d="M74 660q41 47 120 47t120 -47t41 -129v-362q0 -82 -41 -129t-120 -47q-78 0 -119 47t-41 129v362q0 83 40 129zM132 90q21 -26 62 -26q83 0 83 101v370q0 48 -21 75q-20 26 -62 26t-62 -26q-21 -27 -21 -75v-370q0 -49 21 -75z" />
    <glyph glyph-name="uni043F" unicode="&#x43f;" horiz-adv-x="408" 
d="M118 0h-78v700h328v-700h-78v629h-172v-629z" />
    <glyph glyph-name="uni0440" unicode="&#x440;" horiz-adv-x="371" 
d="M312 656q38 -44 38 -127v-84q0 -169 -163 -169h-69v-276h-78v700h153q81 0 119 -44zM252 368q21 22 21 72v93q0 50 -19 73t-61 23h-75v-283h69q44 0 65 22z" />
    <glyph glyph-name="uni0441" unicode="&#x441;" horiz-adv-x="380" 
d="M310 660q39 -46 39 -129v-63h-74v67q0 101 -82 101q-41 0 -61 -26q-21 -27 -21 -75v-370q0 -48 21 -75q20 -26 61 -26q82 0 82 101v91h74v-87q0 -83 -39 -129q-39 -47 -119 -47q-78 0 -117 47q-40 48 -40 129v362q0 81 40 129q39 47 117 47q80 0 119 -47z" />
    <glyph glyph-name="uni0442" unicode="&#x442;" horiz-adv-x="372" 
d="M147 629h-129v71h336v-71h-129v-629h-78v629z" />
    <glyph glyph-name="uni0443" unicode="&#x443;" horiz-adv-x="417" 
d="M218 63q-19 -34 -56 -51q-35 -16 -99 -13v70q45 -2 67 13t33 56l16 46l-161 516h78l71 -243l48 -176l41 176l63 243h81l-150 -546q-14 -59 -32 -91z" />
    <glyph glyph-name="uni0444" unicode="&#x444;" horiz-adv-x="569" 
d="M533 443v-191q0 -175 -162 -175h-49v-77h-77v77h-49q-162 0 -162 175v191q0 175 162 175h49v82h77v-82h49q162 0 162 -175zM132 524q-21 -26 -21 -76v-201q0 -51 21 -77q21 -25 64 -25h49v404h-49q-43 0 -64 -25zM457 247v201q0 50 -21 76q-21 25 -65 25h-49v-404h49
q86 0 86 102z" />
    <glyph glyph-name="uni0445" unicode="&#x445;" horiz-adv-x="435" 
d="M97 0h-74l141 361l-132 339h81l108 -280l109 280h73l-131 -339l140 -361h-82l-116 302z" />
    <glyph glyph-name="uni0446" unicode="&#x446;" horiz-adv-x="455" 
d="M352 0h-305v700h77v-629h172v629h79v-631h53v-163h-76v94z" />
    <glyph glyph-name="uni0447" unicode="&#x447;" horiz-adv-x="401" 
d="M236 270q-30 -15 -62 -15q-68 0 -104 46q-35 45 -35 120v279h78v-273q0 -44 23 -73q22 -28 63 -28q36 0 57 21t27 61v292h77v-700h-77v310q-18 -26 -47 -40z" />
    <glyph glyph-name="uni0448" unicode="&#x448;" horiz-adv-x="581" 
d="M118 71h134v629h78v-629h134v629h77v-700h-501v700h78v-629z" />
    <glyph glyph-name="uni0449" unicode="&#x449;" horiz-adv-x="622" 
d="M520 0h-480v700h78v-629h134v629h77v-629h135v629h77v-631h54v-163h-75v94z" />
    <glyph glyph-name="uni044A" unicode="&#x44a;" horiz-adv-x="438" 
d="M408 255v-84q0 -83 -38 -127t-119 -44h-153v630h-88v70h165v-276h70q163 0 163 -169zM312 94q18 24 18 73v93q0 51 -20 72q-21 22 -65 22h-70v-283h76q44 0 61 23z" />
    <glyph glyph-name="uni044B" unicode="&#x44b;" horiz-adv-x="532" 
d="M350 255v-84q0 -83 -38 -127t-119 -44h-153v700h78v-276h69q163 0 163 -169zM492 0h-77v700h77v-700zM254 94q19 23 19 73v93q0 50 -21 72t-65 22h-69v-283h75q42 0 61 23z" />
    <glyph glyph-name="uni044C" unicode="&#x44c;" horiz-adv-x="381" 
d="M350 255v-84q0 -83 -38 -127t-119 -44h-153v700h78v-276h69q163 0 163 -169zM254 94q19 23 19 73v93q0 50 -21 72t-65 22h-69v-283h75q42 0 61 23z" />
    <glyph glyph-name="uni044D" unicode="&#x44d;" horiz-adv-x="380" 
d="M306 660q39 -46 39 -129v-362q0 -83 -39 -129q-39 -47 -118 -47t-118 47q-39 46 -39 129v76h73v-80q0 -49 20 -75t62 -26t62 26t20 75v162h-122v70h122v138q0 49 -20 75t-62 26t-62 -26t-20 -75v-56h-72v52q0 83 39 129q39 47 117 47q79 0 118 -47z" />
    <glyph glyph-name="uni044E" unicode="&#x44e;" horiz-adv-x="575" 
d="M500 660q40 -46 40 -129v-362q0 -82 -41 -129t-119 -47q-79 0 -120 47t-41 129v146h-101v-315h-78v700h78v-315h101v146q0 82 41 129t120 47t120 -47zM297 535v-370q0 -48 21 -75q20 -26 62 -26t62 26q21 27 21 75v370q0 49 -21 75t-62 26q-83 0 -83 -101z" />
    <glyph glyph-name="uni044F" unicode="&#x44f;" horiz-adv-x="394" 
d="M144 276q-25 -24 -25 -81v-110q0 -33 -3 -51q-3 -19 -10 -34h-79q14 30 14 84v109q0 59 21 95q22 38 66 51q-86 29 -86 144v57q0 79 38 120q37 40 118 40h156v-700h-78v299h-55q-53 0 -77 -23zM138 605q-19 -23 -19 -72v-67q0 -53 25 -75q24 -21 73 -21h59v259h-76
q-42 0 -62 -24z" />
    <glyph glyph-name="uni0451" unicode="&#x451;" horiz-adv-x="360" 
d="M155 741h-68v90h68v-90zM280 741h-69v90h69v-90zM289 320h-171v-249h210v-71h-288v700h288v-71h-210v-239h171v-70z" />
    </font>
</defs>
</svg>
